<svg width="680" height="420" viewBox="0 0 680 420" xmlns="http://www.w3.org/2000/svg">
  <rect width="680" height="420" fill="#0d1117" rx="12"/>
  <rect x="0" y="0" width="680" height="4" rx="2" fill="#238636"/>
  <circle cx="44" cy="36" r="14" fill="#30363d" stroke="#444c56" stroke-width="1"/>
  <text x="44" y="41" text-anchor="middle" font-family="sans-serif" font-size="16" fill="#f0f6fc">⌥</text>
  <text x="68" y="32" font-family="monospace" font-size="12" fill="#58a6ff">github.com</text>
  <text x="68" y="48" font-family="monospace" font-size="14" font-weight="600" fill="#f0f6fc">/sparta2025</text>
  <rect x="580" y="20" width="64" height="24" rx="12" fill="#1f6feb" opacity="0.2" stroke="#1f6feb" stroke-width="1"/>
  <text x="612" y="36" text-anchor="middle" font-family="sans-serif" font-size="11" font-weight="600" fill="#58a6ff">new repos</text>
  <line x1="24" y1="68" x2="656" y2="68" stroke="#21262d" stroke-width="1"/>
  <text x="24" y="92" font-family="sans-serif" font-size="11" font-weight="600" letter-spacing="1" fill="#7d8590">NEW PET-PROJECTS</text>
  <rect x="24" y="106" width="299" height="168" rx="8" fill="#161b22" stroke="#30363d" stroke-width="1"/>
  <rect x="24" y="106" width="299" height="3" rx="2" fill="#388bfd"/>
  <rect x="40" y="124" width="32" height="32" rx="6" fill="#1f6feb" opacity="0.15"/>
  <text x="56" y="145" text-anchor="middle" font-family="sans-serif" font-size="16" fill="#58a6ff">📋</text>
  <text x="84" y="136" font-family="sans-serif" font-size="13" font-weight="600" fill="#f0f6fc">list-applications</text>
  <text x="84" y="152" font-family="sans-serif" font-size="11" fill="#7d8590">fullstack · react · fastapi</text>
  <text x="40" y="180" font-family="sans-serif" font-size="12" fill="#c9d1d9">Учёт заявок с администрированием.</text>
  <text x="40" y="197" font-family="sans-serif" font-size="12" fill="#c9d1d9">Простой пример реализации</text>
  <rect x="40" y="214" width="46" height="18" rx="9" fill="#1f6feb" opacity="0.15"/>
  <text x="63" y="226" text-anchor="middle" font-family="sans-serif" font-size="10" fill="#58a6ff">React</text>
  <rect x="94" y="214" width="58" height="18" rx="9" fill="#1f6feb" opacity="0.15"/>
  <text x="123" y="226" text-anchor="middle" font-family="sans-serif" font-size="10" fill="#58a6ff">FastAPI</text>
  <rect x="160" y="214" width="66" height="18" rx="9" fill="#1f6feb" opacity="0.15"/>
  <text x="193" y="226" text-anchor="middle" font-family="sans-serif" font-size="10" fill="#58a6ff">PostgreSQL</text>
  <text x="40" y="258" font-family="sans-serif" font-size="11" fill="#7d8590">★ star the repo</text>
  <circle cx="285" cy="121" r="6" fill="#238636"/>
  <rect x="341" y="106" width="315" height="168" rx="8" fill="#161b22" stroke="#30363d" stroke-width="1"/>
  <rect x="341" y="106" width="315" height="3" rx="2" fill="#a371f7"/>
  <rect x="357" y="124" width="32" height="32" rx="6" fill="#a371f7" opacity="0.15"/>
  <text x="373" y="145" text-anchor="middle" font-family="sans-serif" font-size="16" fill="#a371f7">🔐</text>
  <text x="401" y="136" font-family="sans-serif" font-size="13" font-weight="600" fill="#f0f6fc">auth-manager</text>
  <text x="401" y="152" font-family="sans-serif" font-size="11" fill="#7d8590">auth · rbac · 2fa · websocket</text>
  <text x="357" y="180" font-family="sans-serif" font-size="12" fill="#c9d1d9">Личный кабинет и авторизация.</text>
  <text x="357" y="197" font-family="sans-serif" font-size="12" fill="#c9d1d9">Подключай к своим проектам — без</text>
  <text x="357" y="213" font-family="sans-serif" font-size="12" fill="#c9d1d9">сторонних фреймворков</text>
  <rect x="357" y="228" width="52" height="18" rx="9" fill="#a371f7" opacity="0.15"/>
  <text x="383" y="240" text-anchor="middle" font-family="sans-serif" font-size="10" fill="#a371f7">RBAC</text>
  <rect x="417" y="228" width="36" height="18" rx="9" fill="#a371f7" opacity="0.15"/>
  <text x="435" y="240" text-anchor="middle" font-family="sans-serif" font-size="10" fill="#a371f7">2FA</text>
  <rect x="461" y="228" width="76" height="18" rx="9" fill="#a371f7" opacity="0.15"/>
  <text x="499" y="240" text-anchor="middle" font-family="sans-serif" font-size="10" fill="#a371f7">WebSocket</text>
  <text x="357" y="258" font-family="sans-serif" font-size="11" fill="#7d8590">★ star the repo</text>
  <circle cx="638" cy="121" r="6" fill="#a371f7"/>
  <line x1="24" y1="296" x2="656" y2="296" stroke="#21262d" stroke-width="1"/>
  <text x="340" y="325" text-anchor="middle" font-family="sans-serif" font-size="13" font-weight="600" fill="#f0f6fc">Подписывайтесь — выходят новые проекты</text>
  <rect x="80" y="340" width="140" height="38" rx="8" fill="#21262d" stroke="#30363d" stroke-width="1"/>
  <text x="98" y="357" font-family="sans-serif" font-size="11" fill="#7d8590">Блог</text>
  <text x="98" y="371" font-family="sans-serif" font-size="12" font-weight="600" fill="#58a6ff">@sparta2025</text>
  <text x="198" y="364" font-family="sans-serif" font-size="16" fill="#58a6ff">✍</text>
  <rect x="270" y="340" width="140" height="38" rx="8" fill="#21262d" stroke="#30363d" stroke-width="1"/>
  <text x="288" y="357" font-family="sans-serif" font-size="11" fill="#7d8590">Соцсети</text>
  <text x="288" y="371" font-family="sans-serif" font-size="12" font-weight="600" fill="#58a6ff">subscribe</text>
  <text x="384" y="364" font-family="sans-serif" font-size="16" fill="#58a6ff">🔔</text>
  <rect x="460" y="340" width="140" height="38" rx="8" fill="#238636" opacity="0.85" stroke="#2ea043" stroke-width="1"/>
  <text x="530" y="357" text-anchor="middle" font-family="sans-serif" font-size="11" fill="#aaffaa">Follow on</text>
  <text x="530" y="371" text-anchor="middle" font-family="sans-serif" font-size="12" font-weight="700" fill="#ffffff">GitHub</text>
  <text x="340" y="405" text-anchor="middle" font-family="monospace" font-size="11" fill="#444c56">github.com/sparta2025</text>
</svg>